{"title":"Avril Lavigne - Let Me Go ft. Chad Kroeger 720p x264 AAC E-Subs ","uid":9051925,"size":57853542,"categoryP":"video","categoryS":"music_videos","magnet":"?xt=urn:btih:9b650459a9792591582bf1785dc6545425493411&amp;dn=Avril+Lavigne+-+Let+Me+Go+ft.+Chad+Kroeger+720p+x264+AAC+E-Subs+&amp;tr=udp%3A%2F%2Ftracker.openbittorrent.com%3A80&amp;tr=udp%3A%2F%2Fopen.demonii.com%3A1337&amp;tr=udp%3A%2F%2Ftracker.coppersurfer.tk%3A6969&amp;tr=udp%3A%2F%2Fexodus.desync.com%3A6969","seeders":3,"leechers":0,"uploader":"canc232","files":1,"time":1381877233,"description":"Avril Lavigne - Let Me Go ft. Chad Kroeger 720p x264 AAC E-Subs [GWC].mp4\n\nCOVER : &lt;a href=&quot;\nhttp://s20.postimg.org/awreyzr3x/avr.jpg&quot; rel=&quot;nofollow&quot; target=&quot;_NEW&quot;&gt;\nhttp://s20.postimg.org/awreyzr3x/avr.jpg&lt;/a&gt;\n\nTHUMBNAIL IMAGE : &lt;a href=&quot;\nhttp://img571.imageshack.us/img571/399/c2th.jpg&quot; rel=&quot;nofollow&quot; target=&quot;_NEW&quot;&gt;\nhttp://img571.imageshack.us/img571/399/c2th.jpg&lt;/a&gt;\n\n\nMEDIA INFO :\n\nGeneral\nFormat : MPEG-4 \nFormat profile : Base Media \nFile size : 55.2 MiB \nDuration : 5mn 7s \nOverall bit rate : 1 505 Kbps \n\nVideo \nFormat : AVC \nFormat profile : &lt;a class=&quot;__cf_email__&quot; href=&quot;/cdn-cgi/l/email-protection&quot; data-cfemail=&quot;4f022e26210f037c617e&quot;&gt;[email&amp;#160;protected]&lt;/a&gt;&lt;script cf-hash='f9e31' type=&quot;text/javascript&quot;&gt;\n/* &lt;![CDATA[ */!function(){try{var t=&quot;currentScript&quot;in document?document.currentScript:function(){for(var t=document.getElementsByTagName(&quot;script&quot;),e=t.length;e--;)if(t[e].getAttribute(&quot;cf-hash&quot;))return t[e]}();if(t&amp;&amp;t.previousSibling){var e,r,n,i,c=t.previousSibling,a=c.getAttribute(&quot;data-cfemail&quot;);if(a){for(e=&quot;&quot;,r=parseInt(a.substr(0,2),16),n=2;a.length-n;n+=2)i=parseInt(a.substr(n,2),16)^r,e+=String.fromCharCode(i);e=document.createTextNode(e),c.parentNode.replaceChild(e,c)}}}catch(u){}}();/* ]]&gt; */&lt;/script&gt; \nFormat settings, CABAC : Yes \nFormat settings, ReFrames : 3 frames \nDuration : 5mn 5s \nBit rate : 1 422 Kbps \nWidth : 1 280 pixels \nHeight : 720 pixels \nDisplay aspect ratio : 16:9 \nFrame rate mode : Variable \nFrame rate : 23.976 fps \nStream size : 51.7 MiB (94%) \nTitle : Avril Lavigne - Let Me Go ft. Chad Kroeger 720p x264 AAC E-Subs [GWC] \n\nAudio \nFormat : AAC \nFormat profile : LC \nCodec ID : 40 \nDuration : 5mn 5s \nBit rate mode : Variable \nChannel(s) : 2 channels \nSampling rate : 48.0 KHz \nStream size : 3.34 MiB (6%) \nTitle : Avril Lavigne - Let Me Go ft. Chad Kroeger 720p x264 AAC E-Subs [GWC] \nLanguage : English \n\nText \nFormat : Timed Text \nCodec ID : tx3g \nDuration : 5mn 7s \nStream size : 1.67 KiB (0%) \nTitle : English Subtitle by [GWC] \nLanguage : English","torrent":{"xt":"urn:btih:9b650459a9792591582bf1785dc6545425493411","amp;dn":"Avril+Lavigne+-+Let+Me+Go+ft.+Chad+Kroeger+720p+x264+AAC+E-Subs+","amp;tr":["udp%3A%2F%2Ftracker.openbittorrent.com%3A80","udp%3A%2F%2Fopen.demonii.com%3A1337","udp%3A%2F%2Ftracker.coppersurfer.tk%3A6969","udp%3A%2F%2Fexodus.desync.com%3A6969"],"infoHash":"9b650459a9792591582bf1785dc6545425493411","infoHashBuffer":{"type":"Buffer","data":[155,101,4,89,169,121,37,145,88,43,241,120,93,198,84,84,37,73,52,17]},"announce":[],"urlList":[]}}